<?xml version="1.0" encoding="UTF-8" standalone="no"?>
<!-- Created with Inkscape (http://www.inkscape.org/) -->

<svg
   xmlns:dc="http://purl.org/dc/elements/1.1/"
   xmlns:cc="http://creativecommons.org/ns#"
   xmlns:rdf="http://www.w3.org/1999/02/22-rdf-syntax-ns#"
   xmlns:svg="http://www.w3.org/2000/svg"
   xmlns="http://www.w3.org/2000/svg"
   version="1.1"
   width="1052.3622"
   height="744.09448"
   id="svg2">
  <defs
     id="defs4" />
  <metadata
     id="metadata7">
    <rdf:RDF>
      <cc:Work
         rdf:about="">
        <dc:format>image/svg+xml</dc:format>
        <dc:type
           rdf:resource="http://purl.org/dc/dcmitype/StillImage" />
        <dc:title></dc:title>
      </cc:Work>
    </rdf:RDF>
  </metadata>
  <g
     transform="translate(0,-308.2677)"
     id="layer1">
    <path
       d="m 402.85713,306.64789 a 108.57143,108.57143 0 1 1 -217.14285,0 108.57143,108.57143 0 1 1 217.14285,0 z"
       transform="matrix(0.51838542,0,0,0.4869859,293.83619,246.24326)"
       id="path2991"
       style="fill:#00e980;fill-opacity:1;stroke:#ffffff;stroke-width:7.96114254;stroke-linecap:round;stroke-linejoin:round;stroke-miterlimit:4;stroke-opacity:1;stroke-dasharray:none;stroke-dashoffset:15" />
    <path
       d="m 402.85713,306.64789 a 108.57143,108.57143 0 1 1 -217.14285,0 108.57143,108.57143 0 1 1 217.14285,0 z"
       transform="matrix(0.51838542,0,0,0.4869859,51.992035,554.16535)"
       id="path2991-3"
       style="fill:#00e980;fill-opacity:1;stroke:#ffffff;stroke-width:7.96114254;stroke-linecap:round;stroke-linejoin:round;stroke-miterlimit:4;stroke-opacity:1;stroke-dasharray:none;stroke-dashoffset:15" />
    <path
       d="m 402.85713,306.64789 a 108.57143,108.57143 0 1 1 -217.14285,0 108.57143,108.57143 0 1 1 217.14285,0 z"
       transform="matrix(0.51838542,0,0,0.4869859,665.6284,383.71081)"
       id="path2991-6"
       style="fill:#00e980;fill-opacity:1;stroke:#ffffff;stroke-width:7.96114254;stroke-linecap:round;stroke-linejoin:round;stroke-miterlimit:4;stroke-opacity:1;stroke-dasharray:none;stroke-dashoffset:15" />
    <path
       d="m 402.85713,306.64789 a 108.57143,108.57143 0 1 1 -217.14285,0 108.57143,108.57143 0 1 1 217.14285,0 z"
       transform="matrix(0.51838542,0,0,0.4869859,159.94658,391.66535)"
       id="path2991-7"
       style="fill:#00e980;fill-opacity:1;stroke:#ffffff;stroke-width:7.96114254;stroke-linecap:round;stroke-linejoin:round;stroke-miterlimit:4;stroke-opacity:1;stroke-dasharray:none;stroke-dashoffset:15" />
    <path
       d="m 402.85713,306.64789 a 108.57143,108.57143 0 1 1 -217.14285,0 108.57143,108.57143 0 1 1 217.14285,0 z"
       transform="matrix(0.51838542,0,0,0.4869859,325.85567,570.07444)"
       id="path2991-5"
       style="fill:#00e980;fill-opacity:1;stroke:#ffffff;stroke-width:7.96114254;stroke-linecap:round;stroke-linejoin:round;stroke-miterlimit:4;stroke-opacity:1;stroke-dasharray:none;stroke-dashoffset:15" />
    <path
       d="m 402.85713,306.64789 a 108.57143,108.57143 0 1 1 -217.14285,0 108.57143,108.57143 0 1 1 217.14285,0 z"
       transform="matrix(0.51838542,0,0,0.4869859,719.03749,580.3017)"
       id="path2991-35"
       style="fill:#00e980;fill-opacity:1;stroke:#ffffff;stroke-width:7.96114254;stroke-linecap:round;stroke-linejoin:round;stroke-miterlimit:4;stroke-opacity:1;stroke-dasharray:none;stroke-dashoffset:15" />
    <path
       d="m 402.85713,306.64789 a 108.57143,108.57143 0 1 1 -217.14285,0 108.57143,108.57143 0 1 1 217.14285,0 z"
       transform="matrix(0.51838542,0,0,0.4869859,341.76476,384.84717)"
       id="path2991-62"
       style="fill:#00e980;fill-opacity:1;stroke:#ffffff;stroke-width:7.96114254;stroke-linecap:round;stroke-linejoin:round;stroke-miterlimit:4;stroke-opacity:1;stroke-dasharray:none;stroke-dashoffset:15" />
    <path
       d="m 402.85713,306.64789 a 108.57143,108.57143 0 1 1 -217.14285,0 108.57143,108.57143 0 1 1 217.14285,0 z"
       transform="matrix(0.51838542,0,0,0.4869859,506.53749,379.16535)"
       id="path2991-9"
       style="fill:#00e980;fill-opacity:1;stroke:#ffffff;stroke-width:7.96114254;stroke-linecap:round;stroke-linejoin:round;stroke-miterlimit:4;stroke-opacity:1;stroke-dasharray:none;stroke-dashoffset:15" />
    <path
       d="m 402.85713,306.64789 a 108.57143,108.57143 0 1 1 -217.14285,0 108.57143,108.57143 0 1 1 217.14285,0 z"
       transform="matrix(0.51838542,0,0,0.4869859,155.40113,767.80171)"
       id="path2991-1"
       style="fill:#00e980;fill-opacity:1;stroke:#ffffff;stroke-width:7.96114254;stroke-linecap:round;stroke-linejoin:round;stroke-miterlimit:4;stroke-opacity:1;stroke-dasharray:none;stroke-dashoffset:15" />
    <path
       d="m 402.85713,306.64789 a 108.57143,108.57143 0 1 1 -217.14285,0 108.57143,108.57143 0 1 1 217.14285,0 z"
       transform="matrix(0.51838542,0,0,0.4869859,489.49203,760.98353)"
       id="path2991-2"
       style="fill:#00e980;fill-opacity:1;stroke:#ffffff;stroke-width:7.96114254;stroke-linecap:round;stroke-linejoin:round;stroke-miterlimit:4;stroke-opacity:1;stroke-dasharray:none;stroke-dashoffset:15" />
    <path
       d="m 402.85713,306.64789 a 108.57143,108.57143 0 1 1 -217.14285,0 108.57143,108.57143 0 1 1 217.14285,0 z"
       transform="matrix(0.51838542,0,0,0.4869859,326.99203,763.25626)"
       id="path2991-93"
       style="fill:#00e980;fill-opacity:1;stroke:#ffffff;stroke-width:7.96114254;stroke-linecap:round;stroke-linejoin:round;stroke-miterlimit:4;stroke-opacity:1;stroke-dasharray:none;stroke-dashoffset:15" />
    <path
       d="m 402.85713,306.64789 a 108.57143,108.57143 0 1 1 -217.14285,0 108.57143,108.57143 0 1 1 217.14285,0 z"
       transform="matrix(0.51838542,0,0,0.4869859,751.99203,754.16535)"
       id="path2991-60"
       style="fill:#00e980;fill-opacity:1;stroke:#ffffff;stroke-width:7.96114254;stroke-linecap:round;stroke-linejoin:round;stroke-miterlimit:4;stroke-opacity:1;stroke-dasharray:none;stroke-dashoffset:15" />
    <path
       d="m 490.92781,587.45276 -6.85561,79.81883"
       id="path3862"
       style="fill:#ffffff;stroke:#f9f9f9;stroke-width:4;stroke-linecap:butt;stroke-linejoin:miter;stroke-miterlimit:4;stroke-opacity:1;stroke-dasharray:none" />
    <path
       d="m 411.43344,437.65365 -59.23052,70.32616"
       id="path3862-6"
       style="fill:#ffffff;stroke:#f9f9f9;stroke-width:4;stroke-linecap:butt;stroke-linejoin:miter;stroke-miterlimit:4;stroke-opacity:1;stroke-dasharray:none" />
    <path
       d="M 656.73255,273.05802 644.40381,549.22185"
       transform="translate(0,308.2677)"
       id="path3911"
       style="fill:none;stroke:#ffffff;stroke-width:4;stroke-linecap:butt;stroke-linejoin:miter;stroke-miterlimit:4;stroke-opacity:1;stroke-dasharray:none" />
    <path
       d="m 832.10329,276.01916 25.56615,94.10519"
       transform="translate(0,308.2677)"
       id="path3913"
       style="fill:none;stroke:#ffffff;stroke-width:4;stroke-linecap:butt;stroke-linejoin:miter;stroke-miterlimit:4;stroke-opacity:1;stroke-dasharray:none" />
    <path
       d="m 881.45901,473.42995 13.21834,69.73814"
       transform="translate(0,308.2677)"
       id="path3915"
       style="fill:none;stroke:#ffffff;stroke-width:4;stroke-linecap:butt;stroke-linejoin:miter;stroke-miterlimit:4;stroke-opacity:1;stroke-dasharray:none" />
    <path
       d="M 828.44962,455.32495 685.18674,568.09128"
       transform="translate(0,308.2677)"
       id="path3919"
       style="fill:none;stroke:#ffffff;stroke-width:4;stroke-linecap:butt;stroke-linejoin:miter;stroke-miterlimit:4;stroke-opacity:1;stroke-dasharray:none" />
    <path
       d="m 478.7201,464.0119 0.51434,87.43789"
       transform="translate(0,308.2677)"
       id="path3921"
       style="fill:none;stroke:#ffffff;stroke-width:4;stroke-linecap:butt;stroke-linejoin:miter;stroke-miterlimit:4;stroke-opacity:1;stroke-dasharray:none" />
    <path
       d="m 227.84829,443.37297 56.80342,117.35211"
       transform="translate(0,308.2677)"
       id="path3923"
       style="fill:none;stroke:#ffffff;stroke-width:4;stroke-linecap:butt;stroke-linejoin:miter;stroke-miterlimit:4;stroke-opacity:1;stroke-dasharray:none" />
    <path
       d="m 442.98682,452.22977 -99.61,115.5476"
       transform="translate(0,308.2677)"
       id="path3925"
       style="fill:none;stroke:#ffffff;stroke-width:4;stroke-linecap:butt;stroke-linejoin:miter;stroke-miterlimit:4;stroke-opacity:1;stroke-dasharray:none" />
    <path
       d="m 282.69774,277.59109 -48.35003,72.77952"
       transform="translate(0,308.2677)"
       id="path3927"
       style="fill:#ffffff;stroke:#ffffff;stroke-width:4;stroke-linecap:butt;stroke-linejoin:miter;stroke-miterlimit:4;stroke-opacity:1;stroke-dasharray:none" />
    <path
       d="m 463.78297,137.60834 13.14185,38.00474"
       transform="translate(0,308.2677)"
       id="path3931"
       style="fill:none;stroke:#ffffff;stroke-width:4;stroke-linecap:butt;stroke-linejoin:miter;stroke-miterlimit:4;stroke-opacity:1;stroke-dasharray:none" />
    <path
       d="m 493.25527,116.59622 118.96998,74.34717"
       transform="translate(0,308.2677)"
       id="path3933"
       style="fill:none;stroke:#ffffff;stroke-width:4;stroke-linecap:butt;stroke-linejoin:miter;stroke-miterlimit:4;stroke-opacity:1;stroke-dasharray:none" />
    <path
       d="m 498.77509,106.67792 267.02125,98.72923"
       transform="translate(0,308.2677)"
       id="path3935"
       style="fill:none;stroke:#ffffff;stroke-width:4;stroke-linecap:butt;stroke-linejoin:miter;stroke-miterlimit:4;stroke-opacity:1;stroke-dasharray:none" />
  </g>
</svg>
